<svg width="1280" height="640" viewBox="0 0 1280 640" fill="none" xmlns="http://www.w3.org/2000/svg" role="img" aria-labelledby="title desc">
  <title id="title">Virtual US Stock World cover</title>
  <desc id="desc">A bold share cover for a local-first virtual US stock investing simulator with three personas and AI-sector tracking.</desc>
  <defs>
    <linearGradient id="bg" x1="112" y1="64" x2="1158" y2="602" gradientUnits="userSpaceOnUse">
      <stop stop-color="#F7F3E8"/>
      <stop offset="0.52" stop-color="#F2F0EA"/>
      <stop offset="1" stop-color="#E5EEF3"/>
    </linearGradient>
    <linearGradient id="panel" x1="824" y1="120" x2="1146" y2="470" gradientUnits="userSpaceOnUse">
      <stop stop-color="#132A3E"/>
      <stop offset="1" stop-color="#1F4B57"/>
    </linearGradient>
    <linearGradient id="lineA" x1="0" y1="0" x2="1" y2="1">
      <stop stop-color="#F05A28"/>
      <stop offset="1" stop-color="#D93524"/>
    </linearGradient>
    <linearGradient id="lineB" x1="0" y1="0" x2="1" y2="1">
      <stop stop-color="#2E8B57"/>
      <stop offset="1" stop-color="#1E6B44"/>
    </linearGradient>
    <linearGradient id="lineC" x1="0" y1="0" x2="1" y2="1">
      <stop stop-color="#3B82F6"/>
      <stop offset="1" stop-color="#1D4ED8"/>
    </linearGradient>
  </defs>

  <rect width="1280" height="640" fill="url(#bg)"/>
  <circle cx="1098" cy="118" r="156" fill="#FFF7E7" opacity="0.95"/>
  <circle cx="172" cy="556" r="118" fill="#E0F0F2" opacity="0.95"/>
  <path d="M0 525C200 445 280 448 450 515C615 580 718 575 895 489C1043 417 1130 405 1280 444V640H0V525Z" fill="#EFF5F7"/>

  <rect x="736" y="86" width="430" height="392" rx="28" fill="url(#panel)"/>
  <rect x="770" y="124" width="128" height="88" rx="18" fill="#FFFFFF" opacity="0.1"/>
  <rect x="918" y="124" width="102" height="88" rx="18" fill="#FFFFFF" opacity="0.08"/>
  <rect x="1040" y="124" width="92" height="88" rx="18" fill="#FFFFFF" opacity="0.08"/>
  <rect x="770" y="238" width="362" height="186" rx="22" fill="#FFFFFF" opacity="0.08"/>

  <text x="110" y="168" fill="#18212B" font-size="62" font-family="Georgia, 'Times New Roman', serif" font-weight="700">
    Virtual US Stock World
  </text>
  <text x="110" y="222" fill="#46525E" font-size="25" font-family="'Trebuchet MS', Verdana, sans-serif">
    A local-first investing simulator with three personas,
  </text>
  <text x="110" y="258" fill="#46525E" font-size="25" font-family="'Trebuchet MS', Verdana, sans-serif">
    daily market updates, AI-sector tracking, and Streamlit dashboards.
  </text>

  <g>
    <rect x="110" y="320" width="154" height="42" rx="21" fill="#18212B"/>
    <text x="136" y="348" fill="#F8F5EE" font-size="20" font-family="'Trebuchet MS', Verdana, sans-serif" font-weight="700">3 PERSONAS</text>
    <rect x="278" y="320" width="186" height="42" rx="21" fill="#D95D30"/>
    <text x="305" y="348" fill="#FFF7EF" font-size="20" font-family="'Trebuchet MS', Verdana, sans-serif" font-weight="700">REAL DAILY DATA</text>
    <rect x="478" y="320" width="170" height="42" rx="21" fill="#2F7D5A"/>
    <text x="509" y="348" fill="#F2FBF6" font-size="20" font-family="'Trebuchet MS', Verdana, sans-serif" font-weight="700">AI WATCHLIST</text>
  </g>

  <text x="110" y="436" fill="#18212B" font-size="22" font-family="'Trebuchet MS', Verdana, sans-serif" font-weight="700">
    Simulated styles
  </text>
  <text x="110" y="470" fill="#46525E" font-size="22" font-family="'Trebuchet MS', Verdana, sans-serif">
    Quality &amp; Stability  •  Growth &amp; Momentum  •  Contrarian Value
  </text>

  <g transform="translate(772 244)">
    <path d="M0 128H352" stroke="#E8F0F4" stroke-opacity="0.18" stroke-width="1.5"/>
    <path d="M0 84H352" stroke="#E8F0F4" stroke-opacity="0.12" stroke-width="1.5"/>
    <path d="M0 40H352" stroke="#E8F0F4" stroke-opacity="0.12" stroke-width="1.5"/>
    <path d="M16 122C52 122 58 62 94 62C134 62 137 162 182 162C229 162 233 28 280 28C310 28 324 50 336 70" stroke="url(#lineC)" stroke-width="6" stroke-linecap="round"/>
    <path d="M16 141C54 141 74 104 104 104C144 104 146 145 188 145C221 145 244 70 286 70C307 70 319 88 336 100" stroke="url(#lineB)" stroke-width="6" stroke-linecap="round"/>
    <path d="M16 94C44 94 60 112 90 112C128 112 150 55 184 55C226 55 235 118 278 118C304 118 322 108 336 94" stroke="url(#lineA)" stroke-width="6" stroke-linecap="round"/>
    <circle cx="182" cy="162" r="7" fill="#60A5FA"/>
    <circle cx="286" cy="70" r="7" fill="#34D399"/>
    <circle cx="278" cy="118" r="7" fill="#FB923C"/>
  </g>

  <text x="770" y="465" fill="#DDE7EC" font-size="18" font-family="'Trebuchet MS', Verdana, sans-serif">
    README  •  Changelog  •  Screenshots  •  Local Dashboard
  </text>
</svg>
